<mxfile host="app.diagrams.net" modified="2024-03-07T22:25:21.427Z" agent="Mozilla/5.0 (Windows NT 10.0; Win64; x64) AppleWebKit/537.36 (KHTML, like Gecko) Chrome/122.0.0.0 Safari/537.36" version="24.0.2" etag="3s6mMl7ke_CEfm-5P2_Z" type="github">
  <diagram name="PÃ¡gina-1" id="47fY8H0Ke9gSySi5bbRE">
    <mxGraphModel>
      <root>
        <mxCell id="0" />
        <mxCell id="1" parent="0" />
      </root>
    </mxGraphModel>
  </diagram>
</mxfile>
